<svg width="360" height="360" viewBox="0 0 360 360" fill="none" xmlns="http://www.w3.org/2000/svg">
<g clip-path="url(#clip0_3048_79690)">
<circle cx="180" cy="180" r="178" fill="black"/>
<path d="M59.7283 171.429C63.5291 168.172 65.5652 163.013 65.5652 156.362C65.5652 154.055 65.5652 146.996 60.407 141.974C55.6561 137.223 50.0907 137.223 44.7968 137.223H31.7656V175.502H46.0185C51.3124 175.502 55.6561 174.823 59.7283 171.429ZM38.6884 168.986V143.602H43.9823C45.3397 143.602 46.5614 143.602 47.6473 143.602C48.7333 143.602 49.6835 143.874 50.7694 144.145C55.5203 145.503 57.8279 149.575 57.8279 156.362C57.8279 161.928 56.0633 165.864 52.6698 167.764C50.3622 168.986 47.9188 169.122 44.661 169.122H38.6884V168.986Z" fill="white"/>
<path d="M76.832 136.95H69.7734V175.501H76.832V136.95Z" fill="white"/>
<path d="M120.945 153.782H101.806V160.433H112.801C111.443 166.406 106.556 170.343 100.991 170.343C94.0683 170.343 88.6386 164.098 88.6386 156.09C88.6386 148.081 93.9325 142.244 100.855 142.244C105.471 142.244 109.679 144.959 111.443 148.895H119.723C117.416 141.565 110.221 136 100.855 136C89.4531 136 80.7656 144.823 80.7656 156.497C80.7656 168.035 89.3173 176.722 100.72 176.722C112.258 176.722 120.809 167.899 120.809 156.225C120.945 155.682 120.945 154.732 120.945 153.782Z" fill="white"/>
<path d="M133.027 136.95H125.969V175.501H133.027V136.95Z" fill="white"/>
<path d="M155.695 175.501V143.466H166.554V136.95H137.777V143.466H148.637V175.501H155.695Z" fill="white"/>
<path d="M183.391 136.95H176.061L161.809 175.501H169.139L172.532 165.999H186.649L190.179 175.501H197.916L183.391 136.95ZM174.84 159.619L179.591 146.316L184.342 159.619H174.84Z" fill="white"/>
<path d="M208.095 136.95H201.172V175.501H231.035V168.985H208.095V136.95Z" fill="white"/>
<path d="M55.2479 201.699C54.0262 201.156 52.6688 200.749 50.4969 200.342L45.3388 199.12C42.081 198.306 39.0947 197.355 39.0947 194.505C39.0947 191.111 42.8954 190.025 46.1532 190.025C48.5965 190.025 50.4969 190.568 51.9901 191.519C53.4832 192.604 54.2977 194.233 54.2977 196.677H61.6277C61.3562 193.555 60.5418 189.754 56.6053 186.768C53.8905 184.867 50.4969 184.053 46.1532 184.053C43.3026 184.053 39.0947 184.324 35.7011 187.311C33.1221 189.482 31.9004 192.197 31.9004 195.184C31.9004 199.527 33.9365 202.106 36.6513 203.735C38.0087 204.55 39.6376 205.228 41.1308 205.636C42.6239 206.043 44.2528 206.45 45.6102 206.722L48.7323 207.4C52.9403 208.35 54.7049 209.572 54.7049 212.287C54.7049 216.088 51.7186 218.26 46.6962 218.26C43.8456 218.26 41.538 217.581 39.9091 216.223C38.6874 215.137 38.1445 213.916 37.873 212.83C37.7373 212.287 37.6015 211.744 37.6015 211.337C37.6015 210.929 37.6015 210.522 37.4658 210.115H30C30 222.875 41.6738 224.368 46.4247 224.368C50.9042 224.368 54.2977 223.418 57.0125 221.653C60.406 219.345 62.1707 216.088 62.1707 211.88C62.3064 209.029 61.3562 204.278 55.2479 201.699Z" fill="white"/>
<path d="M84.5672 190.025C89.4539 190.025 93.7977 192.876 95.4265 197.763H103.571C101.263 189.211 93.7976 183.781 84.703 183.781C73.165 183.781 64.6133 192.604 64.6133 204.278C64.6133 215.952 73.165 224.775 84.703 224.775C93.7976 224.775 101.263 219.481 103.571 210.794H95.4265C93.7977 215.545 89.4539 218.395 84.5672 218.395C77.5087 218.395 72.3505 212.694 72.3505 204.142C72.3505 195.726 77.6444 190.025 84.5672 190.025Z" fill="white"/>
<path d="M115.109 184.867H108.051V223.418H115.109V184.867Z" fill="white"/>
<path d="M127.465 206.857H145.111V200.206H127.465V191.247H147.826V184.867H120.406V223.418H148.369V216.766H127.465V206.857Z" fill="white"/>
<path d="M178.365 210.115L159.769 184.867H153.117V223.418H160.176V198.034L178.772 223.418H185.559V184.867H178.365V210.115Z" fill="white"/>
<path d="M190.312 191.247H201.172V223.418H208.095V191.247H218.954V184.867H190.312V191.247Z" fill="white"/>
<path d="M230.898 184.867H223.84V223.418H230.898V184.867Z" fill="white"/>
<path d="M259.537 201.699C258.315 201.156 256.958 200.749 254.786 200.342L249.628 199.12C246.37 198.306 243.384 197.355 243.384 194.505C243.384 191.111 247.184 190.025 250.442 190.025C252.886 190.025 254.786 190.568 256.279 191.519C257.772 192.604 258.587 194.233 258.587 196.677H265.917C265.645 193.555 264.831 189.754 260.894 186.768C258.18 184.867 254.786 184.053 250.442 184.053C247.592 184.053 243.384 184.324 239.99 187.311C237.411 189.482 236.189 192.197 236.189 195.184C236.189 199.527 238.226 202.106 240.94 203.735C242.298 204.55 243.927 205.228 245.42 205.636C246.913 206.043 248.542 206.45 249.899 206.722L253.021 207.4C257.229 208.35 258.994 209.572 258.994 212.287C258.994 216.088 256.008 218.26 250.985 218.26C248.135 218.26 245.827 217.581 244.198 216.223C242.977 215.137 242.434 213.916 242.162 212.83C242.026 212.287 241.891 211.744 241.891 211.337C241.891 210.929 241.891 210.522 241.755 210.115H234.289C234.289 222.875 245.963 224.368 250.714 224.368C255.193 224.368 258.587 223.418 261.302 221.653C264.695 219.345 266.46 216.088 266.46 211.88C266.595 209.029 265.645 204.278 259.537 201.699Z" fill="white"/>
<path d="M268.227 191.247H279.222V223.418H286.144V191.247H297.004V184.867H268.227V191.247Z" fill="white"/>
<path d="M323.068 201.699C321.847 201.156 320.489 200.749 318.317 200.342L313.159 199.12C309.901 198.306 306.915 197.355 306.915 194.505C306.915 191.111 310.716 190.025 313.974 190.025C316.417 190.025 318.317 190.568 319.81 191.519C321.304 192.604 322.118 194.233 322.118 196.677H329.448C329.177 193.555 328.362 189.754 324.426 186.768C321.711 184.867 318.317 184.053 313.974 184.053C311.123 184.053 306.915 184.324 303.521 187.311C300.942 189.482 299.721 192.197 299.721 195.184C299.721 199.527 301.757 202.106 304.472 203.735C305.829 204.55 307.458 205.228 308.951 205.636C310.444 206.043 312.073 206.45 313.431 206.722L316.553 207.4C320.761 208.35 322.525 209.572 322.525 212.287C322.525 216.088 319.539 218.26 314.516 218.26C311.666 218.26 309.358 217.581 307.729 216.223C306.508 215.137 305.965 213.916 305.693 212.83C305.558 212.287 305.422 211.744 305.422 211.337C305.422 210.929 305.422 210.522 305.286 210.115H297.82C297.82 222.875 309.494 224.368 314.245 224.368C318.724 224.368 322.118 223.418 324.833 221.653C328.226 219.345 329.991 216.088 329.991 211.88C330.127 209.029 329.177 204.278 323.068 201.699Z" fill="white"/>
</g>
<defs>
<clipPath id="clip0_3048_79690">
<rect width="360" height="360" fill="white"/>
</clipPath>
</defs>
</svg>
