<svg width="360" height="360" viewBox="0 0 360 360" fill="none" xmlns="http://www.w3.org/2000/svg">
<circle cx="180" cy="180" r="178" fill="white"/>
<path d="M59.7282 171.428C63.529 168.171 65.5651 163.012 65.5651 156.361C65.5651 154.054 65.5651 146.995 60.4069 141.973C55.656 137.222 50.0906 137.222 44.7967 137.222H31.7656V175.501H46.0184C51.3123 175.501 55.656 174.822 59.7282 171.428ZM38.6884 168.985V143.601H43.9823C45.3397 143.601 46.5614 143.601 47.6473 143.601C48.7332 143.601 49.6834 143.873 50.7693 144.144C55.5203 145.502 57.8278 149.574 57.8278 156.361C57.8278 161.926 56.0632 165.863 52.6697 167.763C50.3621 168.985 47.9188 169.121 44.661 169.121H38.6884V168.985Z" fill="black"/>
<path d="M76.828 136.95H69.7695V175.501H76.828V136.95Z" fill="black"/>
<path d="M120.941 153.782H101.802V160.433H112.797C111.439 166.406 106.552 170.342 100.987 170.342C94.0643 170.342 88.6347 164.098 88.6347 156.09C88.6347 148.081 93.9286 142.244 100.851 142.244C105.467 142.244 109.674 144.959 111.439 148.895H119.719C117.412 141.565 110.217 136 100.851 136C89.4491 136 80.7617 144.823 80.7617 156.497C80.7617 168.035 89.3134 176.722 100.716 176.722C112.254 176.722 120.805 167.899 120.805 156.225C120.941 155.682 120.941 154.732 120.941 153.782Z" fill="black"/>
<path d="M133.027 136.95H125.969V175.501H133.027V136.95Z" fill="black"/>
<path d="M155.695 175.501V143.466H166.554V136.95H137.777V143.466H148.637V175.501H155.695Z" fill="black"/>
<path d="M183.387 136.95H176.057L161.805 175.501H169.135L172.528 165.999H186.645L190.174 175.501H197.912L183.387 136.95ZM174.836 159.619L179.587 146.316L184.338 159.619H174.836Z" fill="black"/>
<path d="M208.095 136.95H201.172V175.501H231.035V168.985H208.095V136.95Z" fill="black"/>
<path d="M55.2478 201.699C54.0261 201.156 52.6687 200.749 50.4969 200.342L45.3387 199.12C42.0809 198.306 39.0946 197.355 39.0946 194.505C39.0946 191.111 42.8954 190.025 46.1532 190.025C48.5965 190.025 50.4969 190.568 51.99 191.518C53.4832 192.604 54.2976 194.233 54.2976 196.677H61.6276C61.3561 193.555 60.5417 189.754 56.6052 186.768C53.8904 184.867 50.4969 184.053 46.1532 184.053C43.3026 184.053 39.0946 184.324 35.7011 187.311C33.122 189.482 31.9004 192.197 31.9004 195.183C31.9004 199.527 33.9365 202.106 36.6513 203.735C38.0087 204.55 39.6376 205.228 41.1307 205.636C42.6239 206.043 44.2528 206.45 45.6102 206.721L48.7322 207.4C52.9402 208.35 54.7048 209.572 54.7048 212.287C54.7048 216.088 51.7185 218.259 46.6961 218.259C43.8456 218.259 41.538 217.581 39.9091 216.223C38.6874 215.137 38.1444 213.916 37.873 212.83C37.7372 212.287 37.6015 211.744 37.6015 211.337C37.6015 210.929 37.6015 210.522 37.4657 210.115H30C30 222.875 41.6737 224.368 46.4246 224.368C50.9041 224.368 54.2976 223.418 57.0124 221.653C60.4059 219.345 62.1706 216.088 62.1706 211.88C62.3063 209.029 61.3561 204.278 55.2478 201.699Z" fill="black"/>
<path d="M84.5672 190.024C89.4538 190.024 93.7975 192.875 95.4264 197.762H103.571C101.263 189.21 93.7975 183.78 84.7029 183.78C73.165 183.78 64.6133 192.603 64.6133 204.277C64.6133 215.951 73.165 224.774 84.7029 224.774C93.7975 224.774 101.263 219.48 103.571 210.793H95.4264C93.7975 215.544 89.4538 218.394 84.5672 218.394C77.5087 218.394 72.3505 212.693 72.3505 204.141C72.3505 195.725 77.6444 190.024 84.5672 190.024Z" fill="black"/>
<path d="M115.109 184.866H108.051V223.417H115.109V184.866Z" fill="black"/>
<path d="M127.465 206.856H145.111V200.205H127.465V191.246H147.826V184.866H120.406V223.417H148.369V216.765H127.465V206.856Z" fill="black"/>
<path d="M178.365 210.114L159.768 184.866H153.117V223.417H160.176V198.033L178.772 223.417H185.559V184.866H178.365V210.114Z" fill="black"/>
<path d="M190.309 191.246H201.168V223.417H208.091V191.246H218.95V184.866H190.309V191.246Z" fill="black"/>
<path d="M230.898 184.866H223.84V223.417H230.898V184.866Z" fill="black"/>
<path d="M259.537 201.699C258.315 201.156 256.958 200.749 254.786 200.342L249.628 199.12C246.37 198.306 243.384 197.355 243.384 194.505C243.384 191.111 247.184 190.025 250.442 190.025C252.886 190.025 254.786 190.568 256.279 191.518C257.772 192.604 258.587 194.233 258.587 196.677H265.917C265.645 193.555 264.831 189.754 260.894 186.768C258.179 184.867 254.786 184.053 250.442 184.053C247.592 184.053 243.384 184.324 239.99 187.311C237.411 189.482 236.189 192.197 236.189 195.183C236.189 199.527 238.226 202.106 240.94 203.735C242.298 204.55 243.927 205.228 245.42 205.636C246.913 206.043 248.542 206.45 249.899 206.721L253.021 207.4C257.229 208.35 258.994 209.572 258.994 212.287C258.994 216.088 256.008 218.259 250.985 218.259C248.135 218.259 245.827 217.581 244.198 216.223C242.976 215.137 242.434 213.916 242.162 212.83C242.026 212.287 241.891 211.744 241.891 211.337C241.891 210.929 241.891 210.522 241.755 210.115H234.289C234.289 222.875 245.963 224.368 250.714 224.368C255.193 224.368 258.587 223.418 261.301 221.653C264.695 219.345 266.46 216.088 266.46 211.88C266.595 209.029 265.645 204.278 259.537 201.699Z" fill="black"/>
<path d="M268.227 191.246H279.222V223.417H286.144V191.246H297.004V184.866H268.227V191.246Z" fill="black"/>
<path d="M323.064 201.699C321.843 201.156 320.485 200.749 318.313 200.342L313.155 199.12C309.897 198.306 306.911 197.355 306.911 194.505C306.911 191.111 310.712 190.025 313.97 190.025C316.413 190.025 318.313 190.568 319.806 191.518C321.3 192.604 322.114 194.233 322.114 196.677H329.444C329.173 193.555 328.358 189.754 324.422 186.768C321.707 184.867 318.313 184.053 313.97 184.053C311.119 184.053 306.911 184.324 303.518 187.311C300.938 189.482 299.717 192.197 299.717 195.183C299.717 199.527 301.753 202.106 304.468 203.735C305.825 204.55 307.454 205.228 308.947 205.636C310.44 206.043 312.069 206.45 313.427 206.721L316.549 207.4C320.757 208.35 322.521 209.572 322.521 212.287C322.521 216.088 319.535 218.259 314.513 218.259C311.662 218.259 309.354 217.581 307.725 216.223C306.504 215.137 305.961 213.916 305.689 212.83C305.554 212.287 305.418 211.744 305.418 211.337C305.418 210.929 305.418 210.522 305.282 210.115H297.816C297.816 222.875 309.49 224.368 314.241 224.368C318.72 224.368 322.114 223.418 324.829 221.653C328.222 219.345 329.987 216.088 329.987 211.88C330.123 209.029 329.173 204.278 323.064 201.699Z" fill="black"/>
</svg>
