<svg width="360" height="360" viewBox="0 0 360 360" fill="none" xmlns="http://www.w3.org/2000/svg">
<g clip-path="url(#clip0_3048_79690)">
<path d="M91.6 173.001C94.4 170.601 95.9 166.801 95.9 161.901C95.9 160.201 95.9 155.001 92.1 151.301C88.6 147.801 84.5 147.801 80.6 147.801H71V176.001H81.5C85.4 176.001 88.6 175.501 91.6 173.001ZM76.1 171.201V152.501H80C81 152.501 81.9 152.501 82.7 152.501C83.5 152.501 84.2 152.701 85 152.901C88.5 153.901 90.2 156.901 90.2 161.901C90.2 166.001 88.9 168.901 86.4 170.301C84.7 171.201 82.9 171.301 80.5 171.301H76.1V171.201Z" fill="white"/>
<path d="M104.2 147.601H99V176.001H104.2V147.601Z" fill="white"/>
<path d="M136.698 160H122.598V164.9H130.698C129.698 169.3 126.098 172.2 121.998 172.2C116.898 172.2 112.898 167.6 112.898 161.7C112.898 155.8 116.798 151.5 121.898 151.5C125.298 151.5 128.398 153.5 129.698 156.4H135.798C134.098 151 128.798 146.9 121.898 146.9C113.498 146.9 107.098 153.4 107.098 162C107.098 170.5 113.398 176.9 121.798 176.9C130.298 176.9 136.598 170.4 136.598 161.8C136.698 161.4 136.698 160.7 136.698 160Z" fill="white"/>
<path d="M145.598 147.601H140.398V176.001H145.598V147.601Z" fill="white"/>
<path d="M162.298 176.001V152.401H170.298V147.601H149.098V152.401H157.098V176.001H162.298Z" fill="white"/>
<path d="M182.701 147.601H177.301L166.801 176.001H172.201L174.701 169.001H185.101L187.701 176.001H193.401L182.701 147.601ZM176.401 164.301L179.901 154.501L183.401 164.301H176.401Z" fill="white"/>
<path d="M200.901 147.601H195.801V176.001H217.801V171.201H200.901V147.601Z" fill="white"/>
<path d="M88.2992 195.301C87.3992 194.901 86.3992 194.601 84.7992 194.301L80.9992 193.401C78.5992 192.801 76.3992 192.101 76.3992 190.001C76.3992 187.501 79.1992 186.701 81.5992 186.701C83.3992 186.701 84.7992 187.101 85.8992 187.801C86.9992 188.601 87.5992 189.801 87.5992 191.601H92.9992C92.7992 189.301 92.1992 186.501 89.2992 184.301C87.2992 182.901 84.7992 182.301 81.5992 182.301C79.4992 182.301 76.3992 182.501 73.8992 184.701C71.9992 186.301 71.0992 188.301 71.0992 190.501C71.0992 193.701 72.5992 195.601 74.5992 196.801C75.5992 197.401 76.7992 197.901 77.8992 198.201C78.9992 198.501 80.1992 198.801 81.1992 199.001L83.4992 199.501C86.5992 200.201 87.8992 201.101 87.8992 203.101C87.8992 205.901 85.6992 207.501 81.9992 207.501C79.8992 207.501 78.1992 207.001 76.9992 206.001C76.0992 205.201 75.6992 204.301 75.4992 203.501C75.3992 203.101 75.2992 202.701 75.2992 202.401C75.2992 202.101 75.2992 201.801 75.1992 201.501H69.6992C69.6992 210.901 78.2992 212.001 81.7992 212.001C85.0992 212.001 87.5992 211.301 89.5992 210.001C92.0992 208.301 93.3992 205.901 93.3992 202.801C93.4992 200.701 92.7992 197.201 88.2992 195.301Z" fill="white"/>
<path d="M109.899 186.701C113.499 186.701 116.699 188.801 117.899 192.401H123.899C122.199 186.101 116.699 182.101 109.999 182.101C101.499 182.101 95.1992 188.601 95.1992 197.201C95.1992 205.801 101.499 212.301 109.999 212.301C116.699 212.301 122.199 208.401 123.899 202.001H117.899C116.699 205.501 113.499 207.601 109.899 207.601C104.699 207.601 100.899 203.401 100.899 197.101C100.899 190.901 104.799 186.701 109.899 186.701Z" fill="white"/>
<path d="M132.399 182.9H127.199V211.3H132.399V182.9Z" fill="white"/>
<path d="M141.501 199.1H154.501V194.2H141.501V187.6H156.501V182.9H136.301V211.3H156.901V206.4H141.501V199.1Z" fill="white"/>
<path d="M178.998 201.5L165.298 182.9H160.398V211.3H165.598V192.6L179.298 211.3H184.298V182.9H178.998V201.5Z" fill="white"/>
<path d="M187.801 187.6H195.801V211.3H200.901V187.6H208.901V182.9H187.801V187.6Z" fill="white"/>
<path d="M217.7 182.9H212.5V211.3H217.7V182.9Z" fill="white"/>
<path d="M238.799 195.301C237.899 194.901 236.899 194.601 235.299 194.301L231.499 193.401C229.099 192.801 226.899 192.101 226.899 190.001C226.899 187.501 229.699 186.701 232.099 186.701C233.899 186.701 235.299 187.101 236.399 187.801C237.499 188.601 238.099 189.801 238.099 191.601H243.499C243.299 189.301 242.699 186.501 239.799 184.301C237.799 182.901 235.299 182.301 232.099 182.301C229.999 182.301 226.899 182.501 224.399 184.701C222.499 186.301 221.599 188.301 221.599 190.501C221.599 193.701 223.099 195.601 225.099 196.801C226.099 197.401 227.299 197.901 228.399 198.201C229.499 198.501 230.699 198.801 231.699 199.001L233.999 199.501C237.099 200.201 238.399 201.101 238.399 203.101C238.399 205.901 236.199 207.501 232.499 207.501C230.399 207.501 228.699 207.001 227.499 206.001C226.599 205.201 226.199 204.301 225.999 203.501C225.899 203.101 225.799 202.701 225.799 202.401C225.799 202.101 225.799 201.801 225.699 201.501H220.199C220.199 210.901 228.799 212.001 232.299 212.001C235.599 212.001 238.099 211.301 240.099 210.001C242.599 208.301 243.899 205.901 243.899 202.801C243.999 200.701 243.299 197.201 238.799 195.301Z" fill="white"/>
<path d="M245.199 187.6H253.299V211.3H258.399V187.6H266.399V182.9H245.199V187.6Z" fill="white"/>
<path d="M285.6 195.301C284.7 194.901 283.7 194.601 282.1 194.301L278.3 193.401C275.9 192.801 273.7 192.101 273.7 190.001C273.7 187.501 276.5 186.701 278.9 186.701C280.7 186.701 282.1 187.101 283.2 187.801C284.3 188.601 284.9 189.801 284.9 191.601H290.3C290.1 189.301 289.5 186.501 286.6 184.301C284.6 182.901 282.1 182.301 278.9 182.301C276.8 182.301 273.7 182.501 271.2 184.701C269.3 186.301 268.4 188.301 268.4 190.501C268.4 193.701 269.9 195.601 271.9 196.801C272.9 197.401 274.1 197.901 275.2 198.201C276.3 198.501 277.5 198.801 278.5 199.001L280.8 199.501C283.9 200.201 285.2 201.101 285.2 203.101C285.2 205.901 283 207.501 279.3 207.501C277.2 207.501 275.5 207.001 274.3 206.001C273.4 205.201 273 204.301 272.8 203.501C272.7 203.101 272.6 202.701 272.6 202.401C272.6 202.101 272.6 201.801 272.5 201.501H267C267 210.901 275.6 212.001 279.1 212.001C282.4 212.001 284.9 211.301 286.9 210.001C289.4 208.301 290.7 205.901 290.7 202.801C290.8 200.701 290.1 197.201 285.6 195.301Z" fill="white"/>
</g>
<defs>
<clipPath id="clip0_3048_79690">
<rect width="360" height="360" fill="white"/>
</clipPath>
</defs>
</svg>
