<?xml version="1.0" encoding="UTF-8"?><svg id="Layer_1" xmlns="http://www.w3.org/2000/svg" viewBox="0 0 360 360"><defs><style>.cls-1{fill:#fff;}</style></defs><rect width="360" height="360"/><path class="cls-1" d="m91.55,172.95c2.84-2.44,4.31-6.18,4.31-11.13,0-1.71,0-6.87-3.82-10.65-3.54-3.54-7.6-3.54-11.54-3.54h-9.59v28.4h10.48c3.98,0,7.23-.53,10.16-3.09Zm-15.48-1.71v-18.73h3.9c.97,0,1.87,0,2.68.04.81.04,1.54.16,2.28.37,3.54,1.02,5.24,3.98,5.24,8.98,0,4.1-1.3,7.03-3.82,8.37-1.71.93-3.49.98-5.85.98h-4.43Z"/><rect class="cls-1" x="98.95" y="147.64" width="5.24" height="28.4"/><path class="cls-1" d="m136.66,160.03h-14.06v4.92h8.09c-.98,4.43-4.55,7.27-8.66,7.27-5.08,0-9.06-4.63-9.06-10.48s3.86-10.24,8.98-10.24c3.37,0,6.46,1.95,7.84,4.92h6.09c-1.75-5.45-7.03-9.55-13.86-9.55-8.41,0-14.75,6.46-14.75,15.08s6.3,14.87,14.67,14.87,14.79-6.46,14.79-15.08c0-.33,0-1.06-.08-1.71Z"/><rect class="cls-1" x="140.44" y="147.64" width="5.24" height="28.4"/><polygon class="cls-1" points="162.26 176.04 162.26 152.43 170.26 152.43 170.26 147.64 149.09 147.64 149.09 152.43 157.1 152.43 157.1 176.04 162.26 176.04"/><path class="cls-1" d="m182.74,147.64h-5.36l-10.61,28.4h5.45l2.48-6.99h10.4l2.56,6.99h5.69l-10.61-28.4Zm-6.34,16.62l3.45-9.79,3.5,9.79h-6.95Z"/><polygon class="cls-1" points="200.94 147.64 195.78 147.64 195.78 176.04 217.81 176.04 217.81 171.24 200.94 171.24 200.94 147.64"/><path class="cls-1" d="m88.3,195.33c-.93-.41-1.87-.65-3.45-1.02l-3.82-.89c-2.44-.61-4.59-1.3-4.59-3.41,0-2.48,2.84-3.33,5.2-3.33,1.83,0,3.25.37,4.27,1.1,1.1.81,1.67,1.95,1.75,3.78h5.36c-.16-2.28-.77-5.12-3.74-7.31-1.95-1.42-4.47-2.03-7.72-2.03-2.11,0-5.16.24-7.72,2.44-1.87,1.58-2.76,3.58-2.76,5.81,0,3.17,1.5,5.08,3.54,6.26,1.02.61,2.15,1.06,3.29,1.38,1.14.32,2.28.57,3.29.77l2.32.53c3.09.65,4.43,1.62,4.43,3.62,0,2.76-2.23,4.43-5.85,4.43-2.11,0-3.78-.49-5-1.54-.85-.77-1.3-1.67-1.5-2.48-.12-.41-.2-.77-.2-1.14-.04-.33-.04-.61-.08-.85h-5.53c.04,9.39,8.61,10.52,12.15,10.52,3.25,0,5.77-.69,7.76-2.03,2.48-1.67,3.82-4.14,3.82-7.19,0-1.99-.69-5.53-5.2-7.4Z"/><path class="cls-1" d="m109.92,186.67c3.58,0,6.79,2.11,7.96,5.69h5.97c-1.67-6.34-7.15-10.28-13.86-10.28-8.45,0-14.79,6.5-14.79,15.12s6.34,15.12,14.79,15.12c6.7,0,12.19-3.94,13.86-10.28h-5.97c-1.18,3.54-4.39,5.65-7.96,5.65-5.16,0-9.02-4.23-9.02-10.48s3.86-10.52,9.02-10.52Z"/><rect class="cls-1" x="127.15" y="182.85" width="5.24" height="28.4"/><polygon class="cls-1" points="141.53 199.06 154.54 199.06 154.54 194.19 141.53 194.19 141.53 187.65 156.49 187.65 156.49 182.85 136.33 182.85 136.33 211.26 156.93 211.26 156.93 206.42 141.53 206.42 141.53 199.06"/><polygon class="cls-1" points="179 201.5 165.31 182.85 160.35 182.85 160.35 211.26 165.63 211.26 165.63 192.56 179.29 211.26 184.29 211.26 184.29 182.85 179 182.85 179 201.5"/><polygon class="cls-1" points="187.77 187.65 195.78 187.65 195.78 211.26 200.94 211.26 200.94 187.65 208.94 187.65 208.94 182.85 187.77 182.85 187.77 187.65"/><rect class="cls-1" x="212.54" y="182.85" width="5.24" height="28.4"/><path class="cls-1" d="m238.83,195.33c-.94-.41-1.87-.65-3.45-1.02l-3.82-.89c-2.44-.61-4.59-1.3-4.59-3.41,0-2.48,2.84-3.33,5.2-3.33,1.83,0,3.25.37,4.27,1.1,1.1.81,1.67,1.95,1.75,3.78h5.36c-.16-2.28-.77-5.12-3.74-7.31-1.95-1.42-4.47-2.03-7.72-2.03-2.11,0-5.16.24-7.72,2.44-1.87,1.58-2.76,3.58-2.76,5.81,0,3.17,1.5,5.08,3.54,6.26,1.02.61,2.15,1.06,3.29,1.38,1.14.32,2.28.57,3.29.77l2.32.53c3.09.65,4.43,1.62,4.43,3.62,0,2.76-2.23,4.43-5.85,4.43-2.11,0-3.78-.49-5-1.54-.85-.77-1.3-1.67-1.5-2.48-.12-.41-.2-.77-.2-1.14-.04-.33-.04-.61-.08-.85h-5.53c.04,9.39,8.61,10.52,12.15,10.52,3.25,0,5.77-.69,7.76-2.03,2.48-1.67,3.82-4.14,3.82-7.19,0-1.99-.69-5.53-5.2-7.4Z"/><polygon class="cls-1" points="245.25 187.65 253.25 187.65 253.25 211.26 258.42 211.26 258.42 187.65 266.42 187.65 266.42 182.85 245.25 182.85 245.25 187.65"/><path class="cls-1" d="m285.6,195.33c-.93-.41-1.87-.65-3.45-1.02l-3.82-.89c-2.44-.61-4.59-1.3-4.59-3.41,0-2.48,2.84-3.33,5.2-3.33,1.83,0,3.25.37,4.27,1.1,1.1.81,1.67,1.95,1.75,3.78h5.36c-.16-2.28-.77-5.12-3.74-7.31-1.95-1.42-4.47-2.03-7.72-2.03-2.11,0-5.16.24-7.72,2.44-1.87,1.58-2.76,3.58-2.76,5.81,0,3.17,1.5,5.08,3.54,6.26,1.02.61,2.15,1.06,3.29,1.38,1.14.32,2.28.57,3.29.77l2.32.53c3.09.65,4.43,1.62,4.43,3.62,0,2.76-2.23,4.43-5.85,4.43-2.11,0-3.78-.49-5-1.54-.85-.77-1.3-1.67-1.5-2.48-.12-.41-.2-.77-.2-1.14-.04-.33-.04-.61-.08-.85h-5.53c.04,9.39,8.61,10.52,12.15,10.52,3.25,0,5.77-.69,7.76-2.03,2.48-1.67,3.82-4.14,3.82-7.19,0-1.99-.69-5.53-5.2-7.4Z"/></svg>