<svg id="Layer_1" data-name="Layer 1" xmlns="http://www.w3.org/2000/svg" viewBox="0 0 360 360"><defs><style>.cls-1,.cls-2{fill:#fff;}.cls-2{opacity:0.75;}</style></defs><rect x="0.58" y="0.12" width="360" height="360"/><rect class="cls-1" x="202.03" y="171.42" width="5.17" height="4.8"/><rect class="cls-1" x="142.58" y="183.03" width="5.2" height="4.8"/><path class="cls-2" d="M89.59,187a6.08,6.08,0,0,1,2.57,1,4.52,4.52,0,0,1,1.75,3.78h5.36a9.25,9.25,0,0,0-3.74-7.32,11.31,11.31,0,0,0-5.94-1.95Z"/><path class="cls-1" d="M89.59,171.32a27.81,27.81,0,0,1-2.84.1H82.32v-6.29H77.16v11.09H87.65c.67,0,1.31,0,1.94-.06Z"/><path class="cls-1" d="M82.69,190.18c0-2.48,2.84-3.33,5.2-3.33a11.13,11.13,0,0,1,1.7.14v-4.53c-.57-.05-1.16-.08-1.78-.08a11.4,11.4,0,0,0-7.72,2.44,7.36,7.36,0,0,0-2.76,5.81,9.56,9.56,0,0,0,.06,1.09h5.84A2.4,2.4,0,0,1,82.69,190.18Z"/><path class="cls-1" d="M128.85,151.72a8.63,8.63,0,0,1,7.19,4.87h6.1a14.13,14.13,0,0,0-13.29-9.53Z"/><rect class="cls-2" x="207.19" y="171.42" width="16.86" height="4.79"/><rect class="cls-2" x="147.79" y="183.03" width="14.95" height="4.79"/><path class="cls-1" d="M285.62,207.62h0a8.23,8.23,0,0,1-4-.85,6.3,6.3,0,0,1-.8-.55,2.31,2.31,0,0,1-.19-.14h0a4.92,4.92,0,0,1-1.51-2.48,4,4,0,0,1-.2-1.13c0-.33,0-.61-.08-.86h-5.53a9.74,9.74,0,0,0,2.93,7.46c2.83,2.62,7,3.07,9.22,3.07h.15Z"/></svg>